<?xml version="1.0" encoding="iso-8859-1"?>
<!-- Generator: Adobe Illustrator 19.0.0, SVG Export Plug-In . SVG Version: 6.00 Build 0)  -->
<svg version="1.1" id="Layer_1" xmlns="http://www.w3.org/2000/svg" xmlns:xlink="http://www.w3.org/1999/xlink" x="0px" y="0px"
	 viewBox="0 0 505 505" style="enable-background:new 0 0 505 505;" xml:space="preserve">
<path style="fill:#324A5E;" d="M356.2,307.5l0.7-39l25.1,0.4l0.7-40.4L351,204.3l1.8-104.3c0.1-7.1-5.6-13-12.7-13.1l-201.5-3.5
	c-7.1-0.1-13,5.6-13.1,12.7l-5.4,308.4c-0.1,7.1,5.6,13,12.7,13.1l233.6,4c7.1,0.1,13-5.6,13.1-12.7l1.4-83.6L356.2,307.5z"/>
<g>
	
		<rect x="121.163" y="128.539" transform="matrix(0.0172 -0.9999 0.9999 0.0172 13.508 298.8221)" style="fill:#FFD05B;" width="75.204" height="28.001"/>
	
		<rect x="172.851" y="129.432" transform="matrix(0.0172 -0.9999 0.9999 0.0172 63.4116 351.3806)" style="fill:#FFD05B;" width="75.204" height="28.001"/>
	
		<rect x="224.54" y="130.331" transform="matrix(0.0172 -0.9999 0.9999 0.0172 113.3091 403.945)" style="fill:#FFD05B;" width="75.204" height="28.001"/>
	
		<rect x="276.228" y="131.231" transform="matrix(0.0172 -0.9999 0.9999 0.0172 163.2066 456.5094)" style="fill:#FFD05B;" width="75.204" height="28.001"/>
</g>
<g>
	<path style="fill:#FFFFFF;" d="M167.9,353.3l0.1-7l22.4,0.4l-0.1,5.7l-7.6,8.4c2.9,0.5,5.2,1.8,6.8,3.8s2.3,4.3,2.3,6.9
		c-0.1,3.8-1.4,6.8-4.1,9c-2.6,2.1-6,3.2-10,3.1c-4.1-0.1-8.1-1.6-12.2-4.5l3.5-6.4c3.4,2.5,6.5,3.8,9.2,3.8c1.6,0,3-0.4,4.1-1.1
		c1.1-0.8,1.6-1.9,1.7-3.5c0-1.5-0.6-2.7-1.8-3.6s-2.9-1.4-5.1-1.4c-1.2,0-2.8,0.3-4.9,0.9l0.1-6l7.2-8.2L167.9,353.3z"/>
	<path style="fill:#FFFFFF;" d="M213.3,361.4c0.9-1.3,1.4-2.6,1.5-3.8c0-1.2-0.4-2.3-1.2-3.1c-0.8-0.8-1.8-1.3-3.1-1.3
		c-2.3,0-4.5,1.6-6.6,4.8l-6.5-4c1.8-2.6,3.7-4.6,5.7-5.9c2.1-1.3,4.7-2,7.8-1.9c3.2,0.1,5.9,1.1,8.3,3.2c2.4,2.1,3.5,4.8,3.4,8.3
		c0,1.9-0.5,3.7-1.5,5.4c-1,1.7-2.8,3.9-5.4,6.5l-6.7,6.8l14.5,0.3l-0.1,7.3l-25.9-0.5l0.1-6.1l10.9-10.8
		C210.7,364.4,212.3,362.7,213.3,361.4z"/>
	<path style="fill:#FFFFFF;" d="M268.6,366.1l8.2,0.1l-0.2,13c-3.7,4-8.8,5.9-15.2,5.8c-5.4-0.1-9.9-2-13.5-5.6s-5.3-8.2-5.2-13.6
		s2-9.9,5.8-13.5s8.3-5.3,13.6-5.2c5.3,0.1,9.8,1.9,13.6,5.4l-4.4,6.1c-1.6-1.5-3.1-2.5-4.5-3c-1.4-0.6-2.9-0.9-4.5-0.9
		c-3.1-0.1-5.8,1-7.9,3c-2.2,2.1-3.3,4.8-3.3,8.3c-0.1,3.5,0.9,6.2,2.9,8.4c2,2.1,4.4,3.2,7.3,3.2c2.8,0,5.2-0.5,7.1-1.5
		L268.6,366.1z"/>
	<path style="fill:#FFFFFF;" d="M299.9,385.3l-16-0.3l0.6-36.7l14.3,0.2c2.5,0,4.6,0.4,6.4,1s3.1,1.5,4,2.5c1.6,1.9,2.4,4.1,2.4,6.4
		c0,2.9-1,5-2.9,6.3c-0.6,0.5-1.1,0.8-1.3,0.9c-0.2,0.1-0.7,0.3-1.3,0.6c2.3,0.5,4.1,1.6,5.4,3.2s2,3.5,1.9,5.8c0,2.6-1,4.8-2.7,6.7
		C308.5,384.3,304.9,385.4,299.9,385.3z M292.4,363.3l3.9,0.1c2.3,0,4-0.2,5.1-0.6c1.1-0.5,1.7-1.5,1.7-3.1s-0.5-2.7-1.5-3.3
		c-1-0.5-2.7-0.8-5.1-0.9l-3.9-0.1L292.4,363.3z M292.1,378.2l5.6,0.1c2.3,0,4.1-0.2,5.3-0.8c1.2-0.6,1.8-1.7,1.8-3.4
		c0-1.7-0.6-2.8-1.8-3.4c-1.2-0.6-3.2-0.9-5.9-0.9l-4.8-0.1L292.1,378.2z"/>
</g>
<g>
</g>
<g>
</g>
<g>
</g>
<g>
</g>
<g>
</g>
<g>
</g>
<g>
</g>
<g>
</g>
<g>
</g>
<g>
</g>
<g>
</g>
<g>
</g>
<g>
</g>
<g>
</g>
<g>
</g>
</svg>
